<?xml version="1.0" standalone="no"?><!DOCTYPE svg PUBLIC "-//W3C//DTD SVG 1.1//EN" "http://www.w3.org/Graphics/SVG/1.1/DTD/svg11.dtd"><svg t="1704337630946" class="icon default_cursor_land" viewBox="0 0 1024 1024" version="1.1" xmlns="http://www.w3.org/2000/svg" p-id="10527" xmlns:xlink="http://www.w3.org/1999/xlink" width="16" height="16"><path d="M877.753171 227.711212c-7.219425-10.243295-16.949021-18.781762-29.185716-25.613354-12.240789-6.827499-27.774577-10.243295-46.603411-10.243295l-43.305295 0c-15.064091 0-29.185716-0.340761-42.3659-1.026376l0-63.513546c0-17.759479-4.234441-32.957623-12.706393-45.589314-8.476045-12.635785-23.693632-18.953677-45.664016-18.953677L363.253234 62.771649c-16.325827 0-30.129204 6.317892-41.429575 18.953677-11.296277 12.631692-16.944927 27.829835-16.944927 45.589314l0 62.495356-83.787288 0c-16.321734 0-30.438243 3.070942-42.3659 9.216919-11.923564 6.145977-21.653159 13.826913-29.184693 23.050995-7.532557 9.216919-13.180184 19.291368-16.949021 30.219255-3.76372 10.927887-5.644557 20.834514-5.644557 29.709649 0 17.755386 0.313132 28.343535 0.940418 31.758308 0 2.730181 0.317225 4.438079 0.940418 5.123694l58.370409 0 0 527.597233c0 17.759479 2.980891 33.639145 8.942673 47.642067 5.961782 13.998829 14.124695 25.954115 24.480554 35.855626 10.356882 9.902534 22.753213 17.58347 37.183877 23.050995 14.437827 5.460362 29.811979 8.190543 46.12962 8.190543l419.885046 0c17.575284 0 33.110095-2.899026 46.603411-8.703219 13.494339-5.809309 24.951275-13.494339 34.363645-23.050995 9.416464-9.561773 16.634866-20.661575 21.653159-33.298384 5.021364-12.631692 7.532557-25.78527 7.532557-39.443337L833.973062 318.889841l62.134129 0 0-6.145977c0-2.048659 0.156566-4.438079 0.469698-7.172353 0.317225-2.734274 0.473791-6.490831 0.473791-11.268648 0-10.246365-1.414209-21.340027-4.238534-33.29429C889.988844 249.055332 884.971573 237.954507 877.753171 227.711212zM363.253234 127.316687l294.668183 0 0 64.539922L363.253234 191.856609 363.253234 127.316687zM364.189559 798.340517c0 28.002774-10.042727 42.001603-30.125111 42.001603-10.670014 0-18.044982-3.411703-22.122857-10.243295-4.080945-6.827499-6.118348-17.414625-6.118348-31.758308L305.823244 322.991252l58.366316 0L364.189559 798.340517zM539.300786 798.340517c0 14.343683-1.883907 24.758893-5.64865 31.245631-3.767813 6.486738-10.987239 9.733689-21.653159 9.733689-20.712741 0-31.069623-13.658068-31.069623-40.97932L480.929354 322.991252l58.370409 0L539.299763 798.340517zM717.232245 796.287765c0 14.343683-1.879813 24.758893-5.64865 31.245631-3.76372 6.493901-11.292184 9.737782-22.592554 9.737782-20.712741 0-31.069623-13.662161-31.069623-40.983413L657.921417 322.991252l59.310827 0L717.232245 796.287765z" fill="#272636" p-id="10528" class="default_pointer_land"></path></svg>