<?xml version="1.0" standalone="no"?><!DOCTYPE svg PUBLIC "-//W3C//DTD SVG 1.1//EN" "http://www.w3.org/Graphics/SVG/1.1/DTD/svg11.dtd"><svg t="1704283979992" class="icon" viewBox="0 0 1024 1024" version="1.1" xmlns="http://www.w3.org/2000/svg" p-id="5965" width="16" height="16" xmlns:xlink="http://www.w3.org/1999/xlink"><path d="M0 0.008h1024v1023.984H0z" fill="#F4F4F4" p-id="5966"></path><path d="M978.84 907.376a69.976 69.976 0 0 1-69.968 69.96h-789.52a69.976 69.976 0 0 1-69.968-69.96V210.408a69.984 69.984 0 0 1 69.968-69.968h789.52a69.984 69.984 0 0 1 69.968 69.968v696.968z" fill="#F4A417" p-id="5967"></path><path d="M49.384 270.616v636.76a69.976 69.976 0 0 0 69.968 69.96h458.392c76.84-184.088 280.688-706.72 280.688-706.72H49.384z" fill="#F4A417" p-id="5968"></path><path d="M49.384 305.304V210.408a69.984 69.984 0 0 1 69.968-69.968h789.52a69.984 69.984 0 0 1 69.968 69.968v94.896H49.384z" fill="#E37F19" p-id="5969"></path><path d="M362.12 281.64a60.208 60.208 0 0 1-60.208-60.2V60.216a60.216 60.216 0 0 1 120.416 0v161.216a60.216 60.216 0 0 1-60.208 60.208zM666.112 281.64a60.232 60.232 0 0 1-60.208-60.2V60.216A60.24 60.24 0 0 1 666.112 0.008c33.28 0 60.2 26.96 60.2 60.208v161.216a60.184 60.184 0 0 1-60.2 60.208z" fill="#E5226B" p-id="5970"></path><path d="M362.12 0.008a60.216 60.216 0 0 1 60.208 60.208v161.216a60.208 60.208 0 0 1-60.208 60.2M666.112 0.008c33.28 0 60.2 26.96 60.2 60.208v161.216a60.176 60.176 0 0 1-60.2 60.2" fill="#C8246D" p-id="5971"></path><path d="M782.52 480.928H221.864a30.08 30.08 0 0 1-30.104-30.104 30.08 30.08 0 0 1 30.104-30.104h560.664a30.08 30.08 0 0 1 30.104 30.104 30.096 30.096 0 0 1-30.112 30.104zM507.904 672.832H221.864c-16.64 0-30.104-13.464-30.104-30.104s13.464-30.112 30.104-30.112h286.04c16.64 0 30.104 13.472 30.104 30.112s-13.464 30.104-30.104 30.104z" fill="#D98D1B" p-id="5972"></path></svg>