<?xml version="1.0" standalone="no"?><!DOCTYPE svg PUBLIC "-//W3C//DTD SVG 1.1//EN" "http://www.w3.org/Graphics/SVG/1.1/DTD/svg11.dtd"><svg t="1667552780108" class="icon" viewBox="0 0 1024 1024" version="1.1" xmlns="http://www.w3.org/2000/svg" p-id="4708" xmlns:xlink="http://www.w3.org/1999/xlink" width="200" height="200"><path d="M0 160h1024v864H0z" fill="#9133FF" p-id="4709"></path><path d="M400 416m-368 0a368 368 0 1 0 736 0 368 368 0 1 0-736 0Z" fill="#DDC0FF" p-id="4710"></path><path d="M400 792C192 792 24 624 24 416S192 40 400 40 776 208 776 416 608 792 400 792z m0-736C201.6 56 40 217.6 40 416S201.6 776 400 776 760 614.4 760 416 598.4 56 400 56z" fill="#7200CC" p-id="4711"></path><path d="M416 400m-336 0a336 336 0 1 0 672 0 336 336 0 1 0-672 0Z" fill="#DDC0FF" p-id="4712"></path><path d="M416 739.2C228.8 739.2 76.8 587.2 76.8 400S228.8 60.8 416 60.8 755.2 212.8 755.2 400 603.2 739.2 416 739.2z m0-672C233.6 67.2 83.2 217.6 83.2 400S233.6 732.8 416 732.8 748.8 582.4 748.8 400 598.4 67.2 416 67.2z" fill="#7200CC" p-id="4713"></path><path d="M416 400m-288 0a288 288 0 1 0 576 0 288 288 0 1 0-576 0Z" fill="#E6CCFF" p-id="4714"></path><path d="M675.2 432h-8c0-156.8-128-284.8-284.8-284.8v-6.4c163.2 0 292.8 129.6 292.8 291.2z" fill="#7200CC" p-id="4715"></path><path d="M448 627.2c-144 0-259.2-116.8-259.2-259.2h8c0 139.2 113.6 252.8 252.8 252.8v6.4z" fill="#FFFFFF" p-id="4716"></path><path d="M621.6 691.104l57.68-57.696 67.888 67.888-57.696 57.696z" fill="#E6CCFF" p-id="4717"></path><path d="M1024 944v80h-96L662.4 764.8l89.6-89.6z" fill="#7200CC" p-id="4718"></path></svg>