<?xml version="1.0" standalone="no"?><!DOCTYPE svg PUBLIC "-//W3C//DTD SVG 1.1//EN" "http://www.w3.org/Graphics/SVG/1.1/DTD/svg11.dtd"><svg t="1704269814473" class="icon default_cursor_land" viewBox="0 0 1024 1024" version="1.1" xmlns="http://www.w3.org/2000/svg" p-id="35617" xmlns:xlink="http://www.w3.org/1999/xlink" width="128" height="128"><path d="M893.7472 102.4c70.1952 0 126.1056 65.536 130.048 146.3808l0.2048 9.0624v117.248h-69.632v-117.248c0-41.6768-24.7808-74.5472-54.8864-78.336l-5.7344-0.3072H130.2528c-30.72 0-57.344 30.4128-60.416 70.912l-0.256 7.68v409.6c0 41.728 24.832 74.5984 54.9376 78.336l5.7344 0.3072H384.512v76.8H130.2528c-70.1952 0-126.1056-65.4848-130.048-146.3808L0 667.4432v-409.6c0-81.9712 53.4016-150.3744 122.5216-155.136L130.2016 102.4h763.5456z" fill="#1890FF" opacity=".3" p-id="35618" class="default_pointer_land"></path><path d="M909.568 748.2368a247.0912 247.0912 0 1 0-58.9312 58.88l58.88-58.88z m-314.368-25.9584a161.792 161.792 0 1 1 229.0688 0 162.2016 162.2016 0 0 1-229.12 0z" fill="#1890FF" p-id="35619"></path><path d="M847.36 738.816a40.9088 40.9088 0 0 1 54.9376-2.6624l2.9184 2.6624 96.4096 96.3584a40.9088 40.9088 0 0 1-54.9376 60.5184l-2.9184-2.6624-96.3584-96.3584a40.9088 40.9088 0 0 1 0-57.856z" fill="#1890FF" p-id="35620"></path></svg>